<svg width="33" height="24" viewBox="0 0 33 24" fill="none" xmlns="http://www.w3.org/2000/svg">
<rect width="33" height="24" rx="3.31579" fill="#353A48"/>
<path fill-rule="evenodd" clip-rule="evenodd" d="M16.6741 17.1658C15.5315 18.1529 14.0494 18.7488 12.4299 18.7488C8.81619 18.7488 5.88672 15.7819 5.88672 12.122C5.88672 8.46207 8.81619 5.49512 12.4299 5.49512C14.0494 5.49512 15.5315 6.09104 16.6741 7.07819C17.8167 6.09104 19.2988 5.49512 20.9183 5.49512C24.532 5.49512 27.4615 8.46207 27.4615 12.122C27.4615 15.7819 24.532 18.7488 20.9183 18.7488C19.2988 18.7488 17.8167 18.1529 16.6741 17.1658Z" fill="#FF5E00"/>
<path fill-rule="evenodd" clip-rule="evenodd" d="M16.6741 7.07819C15.2672 8.29368 14.3751 10.1023 14.3751 12.122C14.3751 14.1416 15.2672 15.9503 16.6741 17.1658C15.5315 18.1529 14.0494 18.7488 12.4299 18.7488C8.81619 18.7488 5.88672 15.7819 5.88672 12.122C5.88672 8.46207 8.81619 5.49512 12.4299 5.49512C14.0494 5.49512 15.5315 6.09104 16.6741 7.07819Z" fill="#ED0006"/>
<path fill-rule="evenodd" clip-rule="evenodd" d="M16.6743 17.1658C18.0812 15.9503 18.9733 14.1416 18.9733 12.122C18.9733 10.1023 18.0812 8.29368 16.6743 7.07819C17.8169 6.09104 19.299 5.49512 20.9185 5.49512C24.5322 5.49512 27.4617 8.46207 27.4617 12.122C27.4617 15.7819 24.5322 18.7488 20.9185 18.7488C19.299 18.7488 17.8169 18.1529 16.6743 17.1658Z" fill="#F9A000"/>
</svg>
