<svg width="33" height="24" viewBox="0 0 33 24" fill="none" xmlns="http://www.w3.org/2000/svg">
<rect width="33" height="24" rx="3.31579" fill="#224DBA"/>
<path fill-rule="evenodd" clip-rule="evenodd" d="M10.4478 16.0072H8.47881L7.00233 10.2472C6.93225 9.98222 6.78345 9.74798 6.56457 9.63758C6.01833 9.36014 5.41641 9.13934 4.75977 9.02798V8.80622H7.93161C8.36937 8.80622 8.69769 9.13934 8.75241 9.52622L9.51849 13.6811L11.4865 8.80622H13.4007L10.4478 16.0072ZM14.4951 16.0072H12.6356L14.1668 8.80622H16.0263L14.4951 16.0072ZM18.4321 10.8011C18.4868 10.4133 18.8151 10.1915 19.1982 10.1915C19.8001 10.1358 20.4558 10.2472 21.003 10.5237L21.3313 8.97326C20.7841 8.7515 20.1822 8.64014 19.6359 8.64014C17.8311 8.64014 16.5178 9.63758 16.5178 11.0219C16.5178 12.075 17.4481 12.628 18.1047 12.9611C18.8151 13.2933 19.0887 13.515 19.034 13.8472C19.034 14.3454 18.4868 14.5672 17.9406 14.5672C17.2839 14.5672 16.6273 14.4011 16.0263 14.1237L15.698 15.675C16.3546 15.9515 17.065 16.0629 17.7217 16.0629C19.7454 16.1176 21.003 15.1211 21.003 13.6254C21.003 11.7419 18.4321 11.6315 18.4321 10.8011ZM27.5108 16.0072L26.0343 8.80622H24.4484C24.1201 8.80622 23.7918 9.02798 23.6823 9.36014L20.9482 16.0072H22.8625L23.2446 14.955H25.5966L25.8154 16.0072H27.5108ZM24.722 10.7454L25.2682 13.4593H23.737L24.722 10.7454Z" fill="white"/>
</svg>
